<svg width="1313" height="257" viewBox="0 0 1313 257" fill="whitesmoke" xmlns="http://www.w3.org/2000/svg">
<path d="M45.5075 253.723V173.617L38.8246 87.4464L64.6016 158.617L91.015 216.702H138.75L165.164 158.617L190.622 87.4464L184.258 173.617V253.723H229.765V39.8933H169.619L134.931 119.362L114.883 182.872L94.8339 119.362L60.1463 39.8933H0V253.723H45.5075Z" fill="whitesmoke"/>
<path d="M364.426 256.596C428.073 256.596 471.671 208.404 471.671 146.489C471.671 84.8935 428.073 36.7018 364.426 36.7018C300.779 36.7018 257.181 84.8935 257.181 146.489C257.181 208.404 300.779 256.596 364.426 256.596ZM364.426 212.234C325.283 212.234 305.234 184.787 305.234 146.489C305.234 108.511 325.283 80.7443 364.426 80.7443C403.887 80.7443 423.617 108.511 423.617 146.489C423.617 184.787 403.887 212.234 364.426 212.234Z" fill="whitesmoke"/>
<path d="M544.613 253.723V162.447L541.113 109.468L560.207 141.064L637.856 253.723H681.136V39.8933H635.628V134.681L638.493 185.106L619.08 151.596L543.341 39.8933H499.106V253.723H544.613Z" fill="#whitesmoke"/>
<path d="M739.482 253.723L756.667 206.17H842.59L859.457 253.723H909.419L829.543 39.8933H770.988L691.111 253.723H739.482ZM786.899 121.596L799.629 76.2762L812.358 121.596L828.588 167.553H770.351L786.899 121.596Z" fill="#whitesmoke"/>
<path d="M965.093 253.723V173.617H981.641C1000.42 173.617 1009.96 178.723 1018.24 193.085L1054.2 253.723H1106.71L1072.97 198.191C1063.75 183.191 1054.84 172.659 1037.97 168.191C1072.66 164.042 1098.43 144.574 1098.43 106.595C1098.43 61.2763 1064.7 39.8933 1018.56 39.8933H919.586V253.723H965.093ZM1016.97 80.4251C1036.7 80.4251 1050.7 88.0848 1050.7 108.829C1050.7 128.936 1036.7 136.915 1016.97 136.915H965.093V80.4251H1016.97Z" fill="#whitesmoke"/>
<path d="M1169.58 253.723V193.723L1202.68 157.659L1259.64 253.723H1312.15L1234.82 124.468L1308.97 39.8933H1255.51L1197.91 104.361L1168.31 140.745L1169.58 100.532V39.8933H1124.08V253.723H1169.58Z" fill="#whitesmoke"/>
<path d="M1270.81 3.80256V0.0909119H1286.79V3.80256H1281.06V19H1276.56V3.80256H1270.81Z" fill="whitesmoke"/>
<path d="M1289.03 0.0909119H1294.69L1299.49 11.7983H1299.71L1304.51 0.0909119H1310.17V19H1305.72V7.38495H1305.56L1301.02 18.88H1298.18L1293.63 7.32032H1293.48V19H1289.03V0.0909119Z" fill="whitesmoke"/>
</svg>
